<svg width="1193" height="1131" viewBox="0 0 1193 1131" fill="none" xmlns="http://www.w3.org/2000/svg">
<path d="M1193 0L25.4975 7.62939e-06C13.4766 18.4423 5.86878 40.1261 4.27765 63.6513C2.21148 94.2001 10.6166 123.038 26.4267 146.655C11.5234 161.839 1.76249 182.217 0.214199 205.109C-1.39963 228.97 6.19555 251.327 19.9634 268.702C8.92385 285.079 1.92424 304.499 0.495514 325.623C-2.02459 362.883 13.3441 397.221 39.2645 420.236C27.8617 436.197 20.6053 455.419 19.1844 476.428C16.7286 512.736 32.2636 546.107 58.1739 567.818C38.0911 590.831 25.0972 620.359 22.8771 653.184C20.1532 693.458 34.1679 730.998 58.978 758.998C47.9395 773.079 40.8657 790.508 39.5673 809.705C38.5413 824.875 41.2375 839.437 46.8758 852.497C43.0499 861.631 40.6389 871.541 39.9334 881.973C38.596 901.746 43.5826 920.485 53.1651 936.214C46.5961 947.855 42.462 961.111 41.4997 975.338C40.3514 992.316 43.8657 1008.53 50.9486 1022.73C45.3562 1034.75 41.841 1047.97 40.8932 1061.99C39.1753 1087.39 46.1635 1111.36 59.3083 1131H1193V0Z" fill="#F8F8F8" fill-opacity="0.4"/>
<path d="M158.039 34.3278C150.808 24.0351 145.284 12.4552 141.88 0H1193V1131H94.3189C86.1567 1112.64 81.6209 1092.3 81.6209 1070.91C81.6209 1038.92 91.7661 1009.3 109.015 985.084C90.5677 968.193 79 943.911 79 916.927C79 883.745 96.493 854.648 122.76 838.356C102.18 817.425 89.4841 788.718 89.4841 757.045C89.4841 722.429 104.649 691.355 128.698 670.104C104.978 653.381 89.4841 625.77 89.4841 594.542C89.4841 569.286 99.6176 546.397 116.04 529.719C104.953 509.242 98.6577 485.791 98.6577 460.869C98.6577 426.151 110.875 394.287 131.245 369.341C121.422 354.662 115.694 337.012 115.694 318.024C115.694 299.649 121.058 282.527 130.306 268.138C123.487 255.256 119.626 240.568 119.626 224.977C119.626 196.774 132.263 171.522 152.184 154.575C139.992 138.92 132.731 119.237 132.731 97.8578C132.731 73.2483 142.353 50.8861 158.039 34.3278Z" fill="#F8F8F8" fill-opacity="0.5"/>
<path d="M245.59 114.775C233.172 96.0256 225.94 73.5417 225.94 49.3688C225.94 31.7514 229.781 15.0312 236.672 0H452.411C452.445 0.0748418 452.479 0.149726 452.513 0.224651H1193V1131H228.759C226.918 1123.73 225.94 1116.11 225.94 1108.26C225.94 1089.95 231.27 1072.87 240.463 1058.51C211.043 1037.48 191.867 1003.03 191.867 964.106C191.867 927.294 209.016 894.489 235.762 873.242C229.478 860.765 225.94 846.667 225.94 831.744C225.94 824.759 226.715 817.955 228.184 811.413C200.213 791.778 181.309 760.103 179 723.916L179 708.922C181.305 672.786 200.16 641.149 228.066 621.508C220.05 607.822 215.456 591.89 215.456 574.884C215.456 565.669 216.805 556.769 219.316 548.371C205.373 529.848 197.109 506.808 197.109 481.837C197.109 443.575 216.514 409.845 246.02 389.953C233.451 374.171 225.94 354.182 225.94 332.439C225.94 303.956 238.829 278.484 259.092 261.536C232.894 245.229 215.456 216.171 215.456 183.041C215.456 155.999 227.073 131.671 245.59 114.775Z" fill="#F8F8F8"/>
</svg>
