<svg width="941" height="624" viewBox="0 0 941 624" fill="none" xmlns="http://www.w3.org/2000/svg">
<path d="M297 10C297 4.47716 301.477 0 307 0H633C638.523 0 643 4.47715 643 10V336C643 341.523 638.523 346 633 346H307C301.477 346 297 341.523 297 336V10Z" fill="#0487D9"/>
<path d="M367.905 48H345V156.333H378.333V105.569L570.765 298H595V189.667H561.667V241.762L367.905 48Z" fill="white"/>
<path d="M501.38 81.3333H561.667V156.333H595V48H468.047L501.38 81.3333Z" fill="white"/>
<path d="M345 298V189.667H378.333V264.667H438.62L471.953 298H345Z" fill="white"/>
<path d="M0 417.913C9.26746 415.265 21.3151 412.75 36.1431 410.368C50.971 407.985 67.3877 406.794 85.393 406.794C102.339 406.794 116.505 409.177 127.891 413.942C139.277 418.442 148.279 424.928 154.899 433.399C161.783 441.605 166.549 451.665 169.197 463.577C172.11 475.225 173.566 488.064 173.566 502.095V618.838H125.508V509.639C125.508 498.521 124.714 489.123 123.125 481.446C121.801 473.505 119.418 467.151 115.976 462.386C112.798 457.356 108.297 453.783 102.472 451.665C96.9111 449.282 90.0267 448.091 81.8184 448.091C75.7284 448.091 69.3736 448.488 62.7539 449.282C56.1343 450.076 51.2358 450.738 48.0584 451.268V618.838H0V417.913Z" fill="#353535"/>
<path d="M187.717 515.993C187.717 497.727 190.365 481.711 195.66 467.945C201.221 454.18 208.502 442.797 217.505 433.796C226.508 424.531 236.834 417.648 248.485 413.148C260.135 408.383 272.051 406 284.231 406C312.827 406 335.069 414.868 350.956 432.605C367.108 450.341 375.184 476.814 375.184 512.022C375.184 514.669 375.052 517.713 374.787 521.155C374.787 524.332 374.655 527.243 374.39 529.891H237.364C238.688 546.568 244.513 559.54 254.84 568.805C265.431 577.806 280.656 582.306 300.515 582.306C312.165 582.306 322.757 581.247 332.289 579.129C342.086 577.012 349.765 574.761 355.325 572.379L361.68 611.69C359.032 613.014 355.325 614.47 350.559 616.058C346.058 617.382 340.762 618.573 334.672 619.632C328.847 620.956 322.492 622.015 315.608 622.809C308.723 623.603 301.706 624 294.557 624C276.287 624 260.4 621.353 246.896 616.058C233.392 610.499 222.271 602.954 213.533 593.424C204.795 583.63 198.308 572.247 194.072 559.275C189.835 546.039 187.717 531.611 187.717 515.993ZM327.126 494.55C327.126 487.932 326.199 481.711 324.346 475.887C322.492 469.798 319.712 464.636 316.005 460.401C312.563 455.9 308.194 452.459 302.898 450.077C297.867 447.429 291.777 446.106 284.628 446.106C277.214 446.106 270.727 447.562 265.166 450.474C259.606 453.121 254.84 456.695 250.868 461.195C247.161 465.695 244.248 470.857 242.13 476.681C240.012 482.505 238.555 488.461 237.761 494.55H327.126Z" fill="#353535"/>
<path d="M488.892 479.064L532.978 411.162H583.42L515.105 509.242C529.404 527.773 543.04 546.568 556.015 565.628C569.254 584.424 580.11 602.16 588.583 618.838H536.553C534.17 613.808 530.992 608.117 527.021 601.763C523.314 595.145 519.209 588.395 514.708 581.512C510.472 574.364 505.97 567.349 501.204 560.466C496.438 553.583 491.804 547.098 487.303 541.009C478.035 552.922 468.9 566.158 459.898 580.718C451.16 595.013 443.878 607.72 438.053 618.838H388.803C392.775 610.896 397.541 602.425 403.101 593.424C408.662 584.424 414.62 575.291 420.974 566.026C427.329 556.495 433.816 547.098 440.436 537.832C447.32 528.302 454.072 519.302 460.692 510.831L391.98 411.162H444.805L488.892 479.064Z" fill="#353535"/>
<path d="M774.977 612.485C765.709 614.867 753.662 617.25 738.834 619.632C724.006 622.279 707.722 623.603 689.981 623.603C673.3 623.603 659.266 621.22 647.88 616.455C636.759 611.69 627.757 605.072 620.872 596.601C614.253 588.13 609.486 578.07 606.574 566.423C603.661 554.51 602.205 541.539 602.205 527.508V411.162H650.263V519.964C650.263 542.2 653.441 558.084 659.796 567.614C666.415 577.144 677.801 581.909 693.953 581.909C699.778 581.909 705.868 581.644 712.223 581.115C718.843 580.585 723.741 579.924 726.919 579.129V411.162H774.977V612.485Z" fill="#353535"/>
<path d="M856.401 584.291C869.111 584.291 878.378 582.835 884.204 579.924C890.029 576.747 892.942 571.452 892.942 564.04C892.942 557.157 889.764 551.466 883.409 546.965C877.319 542.465 867.125 537.568 852.827 532.273C844.089 529.097 836.013 525.787 828.599 522.346C821.45 518.64 815.227 514.404 809.932 509.639C804.636 504.874 800.399 499.183 797.222 492.565C794.309 485.682 792.853 477.343 792.853 467.548C792.853 448.488 799.87 433.531 813.903 422.678C827.937 411.559 847.001 406 871.097 406C883.277 406 894.927 407.191 906.048 409.574C917.169 411.692 925.51 413.809 931.071 415.927L922.333 454.842C917.037 452.459 910.285 450.341 902.077 448.488C893.868 446.37 884.336 445.311 873.48 445.311C863.683 445.311 855.739 447.032 849.649 450.474C843.559 453.65 840.514 458.68 840.514 465.563C840.514 469.004 841.044 472.049 842.103 474.696C843.427 477.343 845.545 479.858 848.458 482.24C851.37 484.358 855.21 486.608 859.976 488.991C864.742 491.109 870.567 493.359 877.452 495.741C888.837 499.977 898.502 504.213 906.445 508.448C914.389 512.419 920.876 517.052 925.907 522.346C931.203 527.376 935.042 533.2 937.425 539.818C939.808 546.436 941 554.378 941 563.643C941 583.497 933.586 598.587 918.758 608.911C904.195 618.97 883.277 624 856.004 624C837.734 624 823.038 622.412 811.918 619.235C800.797 616.323 792.985 613.94 788.484 612.087L796.825 571.982C803.974 574.894 812.447 577.673 822.244 580.321C832.306 582.968 843.692 584.291 856.401 584.291Z" fill="#353535"/>
</svg>
